<svg fill="#78869F" xmlns="http://www.w3.org/2000/svg" xmlns:xlink="http://www.w3.org/1999/xlink" version="1.1" x="0px" y="0px" viewBox="0 0 100 100" enable-background="new 0 0 100 100" xml:space="preserve"><g display="none"><g display="inline" opacity="0.5"><line fill="none" stroke="#78869F" stroke-miterlimit="10" x1="50" y1="89.823" x2="50" y2="9.823"></line><polygon points="42.93,87.575 50,94.646 57.07,87.576   "></polygon><polygon points="57.07,12.07 50,5 42.93,12.071   "></polygon></g></g><g><g><g><path d="M51.5,87.5c1.32-11.892-0.126-23.848-0.83-35.732C49.904,38.845,51.683,25.932,51.25,13c-0.064-1.93-3.064-1.936-3,0     c0.433,12.936-1.259,25.837-0.58,38.768c0.625,11.905,2.152,23.82,0.83,35.732C48.287,89.421,51.289,89.4,51.5,87.5L51.5,87.5z"></path></g></g><g><g><path d="M51.061,95.811c2.21-2.007,4.06-4.341,5.734-6.804c0.681-1-0.241-2.196-1.295-2.257c-3.832-0.221-7.665-0.016-11.5,0     c-1.192,0.005-2.141,1.713-1.061,2.561c2.239,1.757,4.188,3.832,5.766,6.196c1.067,1.602,3.667,0.101,2.59-1.514     c-1.72-2.58-3.787-4.884-6.234-6.804c-0.354,0.854-0.707,1.707-1.061,2.561c3.835-0.016,7.668-0.221,11.5,0     c-0.432-0.752-0.863-1.505-1.295-2.257c-1.536,2.258-3.241,4.357-5.266,6.196C47.505,94.992,49.633,97.108,51.061,95.811z"></path></g></g><g><g><path d="M44.257,13.295c2.641-1.71,5.062-3.784,7.304-5.984c-0.605,0.078-1.212,0.156-1.817,0.234     c1.698,1.293,3.051,2.934,4.212,4.712c0.299-0.734,0.598-1.469,0.896-2.203c-3.814,0.703-7.515,0.702-11.352,0.446     c-1.933-0.129-1.92,2.872,0,3c4.105,0.273,8.074,0.197,12.148-0.554c0.934-0.172,1.397-1.437,0.896-2.203     c-1.46-2.237-3.159-4.169-5.288-5.788c-0.531-0.405-1.38-0.195-1.817,0.234c-2.062,2.024-4.267,3.941-6.696,5.516     C41.126,11.752,42.628,14.351,44.257,13.295z"></path></g></g></g></svg>