<svg xmlns="http://www.w3.org/2000/svg" xmlns:xlink="http://www.w3.org/1999/xlink" version="1.1" x="0px" y="0px" viewBox="0 0 100 100" enable-background="new 0 0 100 100" xml:space="preserve"><g><path fill="#000000" d="M50,87.7C31.9,87.7,17.2,60,17.2,42c0-17.9,14.4-31.8,32.8-31.8s32.8,14,32.8,31.8   C82.8,60,68.1,87.7,50,87.7z M50,14.2c-16.2,0-28.8,12.2-28.8,27.8c0,16.1,13.2,41.6,28.8,41.6S78.8,58.1,78.8,42   C78.8,26.4,66.2,14.2,50,14.2z"></path></g><path fill="#000000" d="M74.2,40c-0.3,0-8.6-0.7-24.2-0.7S26.2,40,25.8,40c-1.1,0.1-1.9,1.1-1.8,2.2c0.1,1,1,1.8,2,1.8  c0.1,0,0.1,0,0.2,0c0.1,0,8.4-0.7,23.8-0.7c15.4,0,23.8,0.7,23.8,0.7c0.1,0,0.1,0,0.2,0c1,0,1.9-0.8,2-1.8  C76.1,41.1,75.3,40.1,74.2,40z"></path><g><circle fill="#000000" cx="38.1" cy="47.9" r="3.3"></circle></g><g><circle fill="#000000" cx="61.9" cy="47.9" r="3.3"></circle></g><g><path fill="#000000" d="M58.6,77.2H41.4c-1.1,0-2-0.9-2-2s0.9-2,2-2h17.3c1.1,0,2,0.9,2,2S59.7,77.2,58.6,77.2z"></path></g><g><path fill="#000000" d="M38.1,53.1c-2.9,0-5.2-2.3-5.2-5.2c0-0.3,0.2-0.5,0.5-0.5s0.5,0.2,0.5,0.5c0,2.3,1.9,4.2,4.2,4.2   c2.3,0,4.2-1.9,4.2-4.2c0-0.3,0.2-0.5,0.5-0.5s0.5,0.2,0.5,0.5C43.3,50.8,40.9,53.1,38.1,53.1z"></path></g><g><path fill="#000000" d="M62,53.1c-2.9,0-5.2-2.3-5.2-5.2c0-0.3,0.2-0.5,0.5-0.5s0.5,0.2,0.5,0.5c0,2.3,1.9,4.2,4.2,4.2   s4.2-1.9,4.2-4.2c0-0.3,0.2-0.5,0.5-0.5s0.5,0.2,0.5,0.5C67.2,50.8,64.9,53.1,62,53.1z"></path></g></svg>