<?xml version="1.0" encoding="utf-8"?>
<!-- Generator: Adobe Illustrator 18.0.0, SVG Export Plug-In . SVG Version: 6.00 Build 0)  -->
<!DOCTYPE svg PUBLIC "-//W3C//DTD SVG 1.1//EN" "http://www.w3.org/Graphics/SVG/1.1/DTD/svg11.dtd">
<svg version="1.1" id="Layer_1" xmlns="http://www.w3.org/2000/svg" xmlns:xlink="http://www.w3.org/1999/xlink" x="0px" y="0px"
	 viewBox="0 0 300 300" enable-background="new 0 0 300 300" xml:space="preserve">
<g>
	<path fill="#476991" d="M37.7,179.1l-22.9,6.1c-0.3-1.3-0.6-2.6-0.9-3.9c-1.8-8.5-2.8-17-3-25.4h23.7c0-1.2-0.1-2.3-0.1-3.5
		c0-0.7,0-1.4,0-2.1H10.9c0.1-10.4,1.5-20.6,3.9-30.5l22.9,6.1c0.3-1.1,0.6-2.3,0.9-3.4c0.2-0.7,0.4-1.3,0.6-2l-22.9-6.1
		c2.8-9.9,6.8-19.5,11.7-28.5l20.5,11.9c0.6-1,1.1-2.1,1.7-3.1c0.3-0.6,0.7-1.2,1.1-1.8L30.6,81c5.3-8.8,11.5-17,18.6-24.5L66,73.3
		c0.8-0.9,1.6-1.7,2.5-2.5c0.5-0.5,1-1,1.5-1.5L53.2,52.5c7.3-7.1,15.5-13.5,24.3-18.9l11.8,20.6c1-0.6,2-1.2,3-1.8
		c0.6-0.3,1.2-0.7,1.8-1L82.3,30.8c8.8-4.9,18.3-8.9,28.4-11.9l6.1,22.9c1.1-0.3,2.2-0.7,3.4-1c0.7-0.2,1.4-0.4,2-0.5l-6.1-22.9
		c1.6-0.4,3.3-0.8,4.9-1.1c8.6-1.8,17.2-2.8,25.8-3V37c1.1,0,2.1,0,3.2,0c0.8,0,1.6,0,2.5,0V13.3c10.4,0.2,20.6,1.5,30.5,3.9
		l-6.1,22.9c1,0.2,2,0.5,3.1,0.8c0.8,0.2,1.6,0.4,2.4,0.7l6.1-22.9c9.9,2.9,19.5,6.8,28.4,11.7L205,50.9c0.9,0.5,1.8,1,2.8,1.5
		c0.7,0.4,1.4,0.8,2.1,1.2l11.9-20.5c8.8,5.3,17,11.6,24.5,18.7l-16.8,16.8c0.8,0.7,1.5,1.5,2.3,2.2c0.6,0.6,1.2,1.2,1.7,1.8
		l16.8-16.8c7.1,7.3,13.4,15.5,18.8,24.4L248.4,92c0.5,0.9,1.1,1.8,1.6,2.7c0.4,0.7,0.8,1.4,1.2,2.1L271.8,85
		c4.9,8.9,8.9,18.4,11.8,28.4l-22.9,6.1c0.3,1,0.6,2,0.9,3c0.2,0.8,0.4,1.6,0.6,2.4l22.9-6.1c0.4,1.5,0.7,3.1,1.1,4.6
		c1.9,9,2.9,18,3.1,26.8h-23.7c0,0.7,0,1.4,0,2.1c0,1.2,0,2.4-0.1,3.5h23.7c-0.3,10.4-1.7,20.6-4.2,30.5l-22.9-6.1
		c-0.2,0.7-0.3,1.4-0.5,2c-0.3,1.1-0.6,2.3-1,3.4l22.9,6.1c-2.9,9.9-7,19.4-11.9,28.4L251,208.3c-0.3,0.6-0.7,1.2-1,1.8
		c-0.6,1-1.2,2-1.8,3l31.2,18c19.4-31.8,27.1-70.9,18.8-110.2C280.8,39.1,200.3-13.1,118.5,4.2C36.7,21.6-15.6,102.1,1.8,183.9
		c3.6,16.7,9.8,32.3,18.1,46.2L51,211.8c-0.4-0.6-0.7-1.2-1-1.8c-0.5-0.9-1-1.8-1.5-2.8l-20.5,11.8c-4.8-8.9-8.8-18.4-11.7-28.5
		l22.9-6.1c-0.2-0.8-0.4-1.6-0.7-2.4C38.2,181.2,38,180.1,37.7,179.1z"/>
	<path fill="#476991" d="M160.3,150.6c1.5,5.8-2,11.7-7.8,13.1c-5.8,1.5-11.7-2-13.1-7.8c-1.5-5.8,2-11.7,7.8-13.1
		C153,141.4,158.8,144.9,160.3,150.6z M166.6,149c-2.4-9.3-11.8-14.8-21-12.5c-13.8,3.5-122.1,50.4-122.1,50.4
		s116.8-13.4,130.6-16.9C163.4,167.6,169,158.2,166.6,149z"/>
</g>
</svg>
