<svg xmlns="http://www.w3.org/2000/svg" data-name="Layer 1" viewBox="0 0 100 100" x="0px" y="0px"><title>2Artboard 89</title><path d="M76,26a8,8,0,1,1-8-8A8,8,0,0,1,76,26Zm0,12H60a6,6,0,0,0-6,6V56a6,6,0,0,0,6,6V78a4,4,0,0,0,4,4h8a4,4,0,0,0,4-4V62a6,6,0,0,0,6-6V44A6,6,0,0,0,76,38ZM26,26a8,8,0,1,0,8-8A8,8,0,0,0,26,26ZM22.18,68H28V78a4,4,0,0,0,4,4h4a4,4,0,0,0,4-4V68h5.82a4.18,4.18,0,0,0,3.88-5.74L41.52,41.78A6,6,0,0,0,35.94,38H32.07a6,6,0,0,0-5.58,3.78L18.3,62.26A4.18,4.18,0,0,0,22.18,68Z"></path></svg>