<svg xmlns="http://www.w3.org/2000/svg" xmlns:xlink="http://www.w3.org/1999/xlink" version="1.1" x="0px" y="0px" viewBox="0 0 100 100" enable-background="new 0 0 100 100" xml:space="preserve"><rect x="76.759" y="82.928" width="16.375" height="8.923"></rect><circle cx="48.329" cy="50.979" r="2.782"></circle><path d="M53.797,71.423c0,0.881-1.556,1.595-3.474,1.595h-3.86c-1.919,0-3.475-0.714-3.475-1.595V55.557  c0-0.881,1.556-1.596,3.475-1.596h3.86c1.918,0,3.474,0.715,3.474,1.596V71.423z"></path><path d="M80.941,82.575h1.192c0,0,2.254-3.633,5.887,0h0.932C88.952,82.575,85.02,76.782,80.941,82.575z"></path><rect x="32.047" y="76.442" width="8.079" height="4.402"></rect><path d="M34.11,76.266h0.588c0,0,1.112-1.792,2.905,0h0.459C38.062,76.266,36.123,73.408,34.11,76.266z"></path><polygon points="43.595,69.11 53.515,69.11 53.477,93.012 50.617,93.012 48.554,73.244 46.039,93.103 43.091,93.103 "></polygon><path d="M74.31,85.401c0,1.006-1.172,1.82-2.617,1.82l0,0c-1.444,0-2.616-0.814-2.616-1.82V78.35c0-1.005,1.172-1.819,2.616-1.819  l0,0c1.445,0,2.617,0.814,2.617,1.819V85.401z"></path><circle cx="71.768" cy="74.289" r="1.87"></circle><polygon points="69.5,86.038 71.224,93.09 72.65,93.09 73.55,86.119 "></polygon><circle cx="60.462" cy="54.831" r="2.426"></circle><polygon points="58.489,81.815 61.179,92.807 63.401,92.807 64.803,81.94 "></polygon><polygon points="57.833,69.458 55.289,82.706 68.356,82.706 64.497,69.434 "></polygon><path d="M64.716,67.84c0,1.841-1.748,3.332-3.902,3.332l0,0c-2.155,0-3.903-1.491-3.903-3.332v-6.842  c0-1.84,1.748-3.332,3.903-3.332l0,0c2.154,0,3.902,1.492,3.902,3.332V67.84z"></path><ellipse transform="matrix(0.645 -0.7642 0.7642 0.645 -22.7376 74.3233)" cx="68.623" cy="61.633" rx="1.581" ry="1.401"></ellipse><path d="M58.848,59.895c0,0,8.301,4.281,7.646,4.938c0,0,1.778,0.27,1.385-1.309c-0.394-1.577-7.646-4.842-7.646-4.842  S58.198,58.708,58.848,59.895z"></path><path d="M65.828,63.526c0,0-3.959,3.762-2.695,5.391c1.265,1.628,5.19-3.568,5.109-4.972C68.164,62.543,65.828,63.526,65.828,63.526  z"></path><rect x="14.133" y="74.465" width="16.511" height="18.575"></rect><rect x="15.883" y="60.487" width="11.508" height="12.945"></rect><rect x="4.146" y="85.628" width="7.616" height="8.568"></rect><rect x="31.637" y="81.814" width="8.895" height="10.007"></rect></svg>