<svg xmlns="http://www.w3.org/2000/svg" xmlns:xlink="http://www.w3.org/1999/xlink" version="1.1" x="0px" y="0px" viewBox="0 0 100 100" enable-background="new 0 0 100 100" xml:space="preserve"><g><path fill="none" d="M48.917,26.191v-1.077l-5.974-1.242l-29.334-4.104v47.494l30.285,6.298l4.766,0.667L48.917,26.191z    M19.142,27.524c0.095-0.424,0.518-0.686,0.938-0.594l21.537,4.835c0.423,0.095,0.688,0.514,0.593,0.937   c-0.082,0.365-0.406,0.613-0.765,0.613c-0.057,0-0.115-0.006-0.173-0.019l-21.537-4.835C19.312,28.366,19.047,27.947,19.142,27.524   z M42.209,65.384c-0.082,0.365-0.406,0.613-0.765,0.613c-0.057,0-0.115-0.006-0.173-0.019l-21.537-4.835   c-0.423-0.095-0.688-0.514-0.593-0.937c0.095-0.424,0.518-0.686,0.938-0.594l21.537,4.835   C42.038,64.542,42.304,64.961,42.209,65.384z M42.209,58.847c-0.082,0.365-0.406,0.613-0.765,0.613   c-0.057,0-0.115-0.006-0.173-0.019l-21.537-4.835c-0.423-0.095-0.688-0.514-0.593-0.937c0.095-0.424,0.518-0.687,0.938-0.594   l21.537,4.835C42.038,58.005,42.304,58.424,42.209,58.847z M42.209,52.311c-0.082,0.365-0.406,0.613-0.765,0.613   c-0.057,0-0.115-0.006-0.173-0.019L19.735,48.07c-0.423-0.095-0.688-0.514-0.593-0.937c0.095-0.423,0.518-0.687,0.938-0.594   l21.537,4.835C42.038,51.469,42.304,51.888,42.209,52.311z M42.209,45.774c-0.082,0.366-0.406,0.613-0.765,0.613   c-0.057,0-0.115-0.006-0.173-0.019l-21.537-4.835c-0.423-0.095-0.688-0.514-0.593-0.937c0.095-0.423,0.518-0.687,0.938-0.594   l21.537,4.835C42.038,44.932,42.304,45.351,42.209,45.774z M42.209,39.238c-0.082,0.365-0.406,0.613-0.765,0.613   c-0.057,0-0.115-0.006-0.173-0.019l-21.537-4.835c-0.423-0.095-0.688-0.514-0.593-0.937c0.095-0.423,0.518-0.688,0.938-0.594   l21.537,4.835C42.038,38.396,42.304,38.815,42.209,39.238z"></path><polygon fill="none" points="86.578,17.772 86.312,17.827 86.578,17.793  "></polygon><path fill="none" d="M56.234,24.081l-4.957,1.031l-0.006,1.107v47.987l5.039-0.65l30.268-6.294V20.166L56.234,24.081z    M80.773,61.143l-21.537,4.835c-0.058,0.013-0.116,0.019-0.173,0.019c-0.359,0-0.683-0.248-0.765-0.613   c-0.095-0.423,0.171-0.842,0.593-0.937l21.537-4.835c0.419-0.095,0.842,0.17,0.937,0.594   C81.462,60.628,81.196,61.048,80.773,61.143z M80.773,54.606l-21.537,4.835c-0.058,0.013-0.116,0.019-0.173,0.019   c-0.359,0-0.683-0.247-0.765-0.613c-0.095-0.423,0.171-0.842,0.593-0.937l21.537-4.835c0.419-0.095,0.842,0.17,0.937,0.594   C81.462,54.092,81.196,54.511,80.773,54.606z M80.773,48.07l-21.537,4.835c-0.058,0.013-0.116,0.019-0.173,0.019   c-0.359,0-0.683-0.247-0.765-0.613c-0.095-0.423,0.171-0.842,0.593-0.937l21.537-4.835c0.419-0.096,0.842,0.17,0.937,0.594   C81.462,47.556,81.196,47.975,80.773,48.07z M80.773,41.533l-21.537,4.835c-0.058,0.013-0.116,0.019-0.173,0.019   c-0.359,0-0.683-0.247-0.765-0.613c-0.095-0.423,0.171-0.842,0.593-0.937l21.537-4.835c0.419-0.097,0.842,0.17,0.937,0.594   C81.462,41.019,81.196,41.438,80.773,41.533z M80.773,34.997l-21.537,4.835c-0.058,0.013-0.116,0.019-0.173,0.019   c-0.359,0-0.683-0.247-0.765-0.613c-0.095-0.423,0.171-0.842,0.593-0.937l21.537-4.835c0.419-0.096,0.842,0.17,0.937,0.594   C81.462,34.482,81.196,34.902,80.773,34.997z M80.773,28.461l-21.537,4.835c-0.058,0.013-0.116,0.019-0.173,0.019   c-0.359,0-0.683-0.248-0.765-0.613c-0.095-0.423,0.171-0.842,0.593-0.937l21.537-4.835c0.419-0.095,0.842,0.17,0.937,0.594   C81.462,27.947,81.196,28.366,80.773,28.461z"></path><path fill="none" d="M88.932,68.219c0,0.558-0.391,1.039-0.937,1.152l-1.226,0.255l5.606-0.723l0.265-49.519l-3.707,0.478V68.219z"></path><path fill="none" d="M11.255,68.219v-48.78L7.624,18.93L7.359,68.449l4.253,0.595C11.396,68.828,11.255,68.542,11.255,68.219z"></path><path d="M94.603,17.163c-0.254-0.224-0.593-0.328-0.93-0.285l-4.74,0.612v-1.164c0-0.354-0.159-0.69-0.434-0.913   c-0.275-0.223-0.636-0.311-0.982-0.239l-31.673,6.586l-5.731,0.739l-6.761-0.946l-30.679-6.379   c-0.345-0.072-0.707,0.016-0.982,0.239c-0.275,0.223-0.434,0.559-0.434,0.913v0.737l-4.638-0.649   c-0.336-0.049-0.677,0.054-0.933,0.275c-0.257,0.222-0.405,0.544-0.407,0.884L5,69.465c-0.003,0.589,0.43,1.09,1.014,1.171   l37.48,5.243l6.36,1.323c0.079,0.016,0.16,0.025,0.239,0.025c0.08,0,0.16-0.008,0.239-0.025l0.938-0.195v7.843l4.315-3.888   l4.316,3.889v-9.387l33.795-4.36c0.585-0.075,1.023-0.572,1.026-1.161L95,18.051C95.002,17.712,94.857,17.388,94.603,17.163z    M86.578,17.772v0.021l-0.267,0.034L86.578,17.772z M13.609,67.262V19.768l29.334,4.104l5.974,1.242v1.077L48.66,74.226   l-4.766-0.667L13.609,67.262z M56.31,73.556l-5.039,0.65V26.219l0.006-1.107l4.957-1.031l30.344-3.915v47.095L56.31,73.556z    M7.624,18.93l3.631,0.508v48.78c0,0.323,0.141,0.61,0.357,0.825l-4.253-0.595L7.624,18.93z M92.374,68.903l-5.606,0.723   l1.226-0.255c0.546-0.113,0.937-0.595,0.937-1.152V19.863l3.707-0.478L92.374,68.903z"></path><path d="M41.616,64.447l-21.537-4.835c-0.419-0.092-0.843,0.17-0.938,0.594c-0.095,0.423,0.171,0.842,0.593,0.937l21.537,4.835   c0.058,0.013,0.116,0.019,0.173,0.019c0.359,0,0.683-0.248,0.765-0.613C42.304,64.961,42.038,64.542,41.616,64.447z"></path><path d="M41.616,57.91l-21.537-4.835c-0.419-0.093-0.843,0.17-0.938,0.594c-0.095,0.423,0.171,0.842,0.593,0.937l21.537,4.835   c0.058,0.013,0.116,0.019,0.173,0.019c0.359,0,0.683-0.247,0.765-0.613C42.304,58.424,42.038,58.005,41.616,57.91z"></path><path d="M41.616,51.374l-21.537-4.835c-0.419-0.093-0.843,0.171-0.938,0.594c-0.095,0.423,0.171,0.842,0.593,0.937l21.537,4.835   c0.058,0.013,0.116,0.019,0.173,0.019c0.359,0,0.683-0.247,0.765-0.613C42.304,51.888,42.038,51.469,41.616,51.374z"></path><path d="M41.616,44.837l-21.537-4.835c-0.419-0.093-0.843,0.171-0.938,0.594c-0.095,0.423,0.171,0.842,0.593,0.937l21.537,4.835   c0.058,0.013,0.116,0.019,0.173,0.019c0.359,0,0.683-0.247,0.765-0.613C42.304,45.351,42.038,44.932,41.616,44.837z"></path><path d="M41.616,38.301l-21.537-4.835c-0.419-0.094-0.843,0.171-0.938,0.594c-0.095,0.423,0.171,0.842,0.593,0.937l21.537,4.835   c0.058,0.013,0.116,0.019,0.173,0.019c0.359,0,0.683-0.247,0.765-0.613C42.304,38.815,42.038,38.396,41.616,38.301z"></path><path d="M19.735,28.461l21.537,4.835c0.058,0.013,0.116,0.019,0.173,0.019c0.359,0,0.683-0.248,0.765-0.613   c0.095-0.423-0.171-0.842-0.593-0.937L20.079,26.93c-0.419-0.092-0.843,0.17-0.938,0.594   C19.047,27.947,19.312,28.366,19.735,28.461z"></path><path d="M80.429,59.612l-21.537,4.835c-0.423,0.095-0.688,0.514-0.593,0.937c0.082,0.365,0.406,0.613,0.765,0.613   c0.057,0,0.115-0.006,0.173-0.019l21.537-4.835c0.423-0.095,0.688-0.514,0.593-0.937C81.271,59.782,80.848,59.517,80.429,59.612z"></path><path d="M80.429,53.075L58.893,57.91c-0.423,0.095-0.688,0.514-0.593,0.937c0.082,0.365,0.406,0.613,0.765,0.613   c0.057,0,0.115-0.006,0.173-0.019l21.537-4.835c0.423-0.095,0.688-0.514,0.593-0.937C81.271,53.245,80.848,52.98,80.429,53.075z"></path><path d="M80.429,46.539l-21.537,4.835c-0.423,0.095-0.688,0.514-0.593,0.937c0.082,0.365,0.406,0.613,0.765,0.613   c0.057,0,0.115-0.006,0.173-0.019l21.537-4.835c0.423-0.095,0.688-0.514,0.593-0.937C81.271,46.709,80.848,46.443,80.429,46.539z"></path><path d="M80.429,40.002l-21.537,4.835c-0.423,0.095-0.688,0.514-0.593,0.937c0.082,0.366,0.406,0.613,0.765,0.613   c0.057,0,0.115-0.006,0.173-0.019l21.537-4.835c0.423-0.095,0.688-0.514,0.593-0.937C81.271,40.173,80.848,39.906,80.429,40.002z"></path><path d="M80.429,33.466l-21.537,4.835c-0.423,0.095-0.688,0.514-0.593,0.937c0.082,0.365,0.406,0.613,0.765,0.613   c0.057,0,0.115-0.006,0.173-0.019l21.537-4.835c0.423-0.095,0.688-0.514,0.593-0.937C81.271,33.636,80.848,33.369,80.429,33.466z"></path><path d="M80.429,26.93l-21.537,4.835c-0.423,0.095-0.688,0.514-0.593,0.937c0.082,0.365,0.406,0.613,0.765,0.613   c0.057,0,0.115-0.006,0.173-0.019l21.537-4.835c0.423-0.095,0.688-0.514,0.593-0.937C81.271,27.1,80.848,26.835,80.429,26.93z"></path></g></svg>