<svg xmlns="http://www.w3.org/2000/svg" xmlns:xlink="http://www.w3.org/1999/xlink" version="1.1" x="0px" y="0px" viewBox="0 0 48 48" enable-background="new 0 0 48 48" xml:space="preserve"><g><path d="M30.7,37.7l4.2-7.4c-0.7-0.4-1.5-0.8-2.2-1.2l-6.8,5.3L30.7,37.7z"></path><path d="M22.2,34.5l-6.8-5.3c-0.8,0.4-1.5,0.8-2.2,1.2l4.2,7.4L22.2,34.5z"></path><path d="M23.8,28.9c-2.5,0-5.1-1.1-7.3-3.3v1.8l7.5,5.8l7.5-5.8v-1.5C29.2,28,26.4,28.9,23.8,28.9z"></path><path d="M17.6,40.1c-0.2,0.1-0.7,0.2-0.8,0.1c-0.3-0.1-0.5-0.3-0.7-0.5l-5.2-9.1c-5.3,4-8.7,10.3-8.7,17.4H20   c0-0.1,1.5-7.5,1.5-7.5L20,38.4L17.6,40.1z"></path><path d="M26.2,37.3L24,35.8l-2.2,1.5l1.7,2.4c0.2,0.2,0.2,0.5,0.2,0.8L22.1,48h3.8l-1.5-7.5c-0.1-0.3,0-0.6,0.2-0.8L26.2,37.3z"></path><path d="M37.1,30.6L32,39.8c-0.1,0.3-0.4,0.4-0.7,0.5c-0.1,0-0.6,0-0.8-0.1L28,38.4l-1.4,2c0,0,1.5,7.4,1.5,7.5h17.8   C45.8,40.9,42.4,34.6,37.1,30.6z"></path><path d="M13.2,9.9c0,11,5.5,16.9,10.6,16.9c5,0,10.4-3.9,11-15C35.4,4.4,31.6,0,24,0C17.4,0,13.2,4.4,13.2,9.9   C13.2,9.9,13.3,9.8,13.2,9.9z M20.1,9.1c1.6,1.3,6.5,4.7,12.4,4.9c-0.9,6.7-4,10.7-8.7,10.7c-4,0-8.2-5.1-8.5-13.8   C17.4,9.2,20,9.1,20.1,9.1z"></path></g></svg>