<svg xmlns:dc="http://purl.org/dc/elements/1.1/" xmlns:cc="http://creativecommons.org/ns#" xmlns:rdf="http://www.w3.org/1999/02/22-rdf-syntax-ns#" xmlns:svg="http://www.w3.org/2000/svg" xmlns="http://www.w3.org/2000/svg" xmlns:sodipodi="http://sodipodi.sourceforge.net/DTD/sodipodi-0.dtd" xmlns:inkscape="http://www.inkscape.org/namespaces/inkscape" version="1.1" x="0px" y="0px" viewBox="0 0 100 100"><g transform="translate(0,-952.36218)"><path style="color:#000000;enable-background:accumulate;" d="M 50,977.36218 4.9999998,994.36217 50,1011.3622 95,994.36217 50,977.36218 z m -40.0000001,20.99999 0,10.78123 c -0.6089,0.5491 -1,1.3343 -1,2.2188 0,1.6569 1.3432001,3 3.0000001,3 1.6568,0 3,-1.3431 3,-3 0,-0.8845 -0.3911,-1.6697 -1,-2.2188 l 0,-9.28123 -4.0000001,-1.5 z M 22,1002.8934 l 0,14.4688 c 0,4.1862 12.488,10 28,10 15.512,0 28,-5.8138 28,-10 l 0,-14.4688 -27.2812,10.3126 a 2.0001996,2.0001996 0 0 1 -1.4376,0 L 22,1002.8934 z" fill="#000000" stroke="none" marker="none" visibility="visible" display="inline" overflow="visible"></path></g></svg>