<svg xmlns:dc="http://purl.org/dc/elements/1.1/" xmlns:cc="http://creativecommons.org/ns#" xmlns:rdf="http://www.w3.org/1999/02/22-rdf-syntax-ns#" xmlns:svg="http://www.w3.org/2000/svg" xmlns="http://www.w3.org/2000/svg" xmlns:sodipodi="http://sodipodi.sourceforge.net/DTD/sodipodi-0.dtd" xmlns:inkscape="http://www.inkscape.org/namespaces/inkscape" viewBox="0 0 354.33071 354.33071" version="1.1" x="0px" y="0px"><g transform="translate(0,-698.0315)"><path style="" d="m 75.507818,726.86353 79.449222,19.15039 a 30,30 0 0 1 25.14453,-13.65234 30,30 0 0 1 29.83398,26.90625 l 79.44727,19.15039 -4.6875,19.44336 -9.5918,-2.3125 46.12891,103.07226 16.56445,0 a 70,38.259911 0 0 1 -35,33.13477 70,38.259911 0 0 1 -70,0 70,38.259911 0 0 1 -35,-33.13477 l 16.58399,0 47.55078,-106.24609 -56.68555,-13.66602 a 30,30 0 0 1 -15.14453,11.89844 l 0,176.75391 130,0 0,40.00002 -280.000002,0 0,-40.00002 130.000002,0 0,-176.75 a 30,30 0 0 1 -19.83398,-25.1543 l -55.279302,-13.32422 46.361332,103.58985 16.95507,0 a 70,38.259911 0 0 1 -35,33.13476 70,38.259911 0 0 1 -70.000002,0 70,38.259911 0 0 1 -35,-33.13476 l 18.31836,0 47.53125,-106.20118 -13.33398,-3.21484 4.6875,-19.44336 z m 13.47852,36.33985 -41.40625,92.51953 40.7246,0 42.089852,0 -41.408202,-92.51953 z m 178.820312,40.52343 -42.4707,94.89453 42.46093,0 42.48047,0 -42.4707,-94.89453 z" fill="#000000" fill-opacity="1" stroke="none"></path></g></svg>